<svg width="16" height="16" viewBox="0 0 16 16" fill="none" xmlns="http://www.w3.org/2000/svg">
<path d="M14.492 7.12562L3.99198 1.1325C3.81487 1.03279 3.61158 0.989425 3.4092 1.00817C3.20682 1.02691 3.01496 1.10688 2.85917 1.23741C2.70339 1.36795 2.59107 1.54285 2.5372 1.73883C2.48332 1.93481 2.49044 2.14255 2.55761 2.33437L4.47198 8.00062L2.55761 13.6675C2.50433 13.8183 2.488 13.9797 2.50998 14.1381C2.53196 14.2965 2.59162 14.4473 2.68395 14.5779C2.77627 14.7085 2.89857 14.815 3.04058 14.8886C3.18259 14.9621 3.34018 15.0006 3.50011 15.0006C3.67386 15.0003 3.84457 14.9551 3.99573 14.8694L14.4907 8.86625C14.6455 8.77953 14.7745 8.65319 14.8643 8.50019C14.9542 8.34719 15.0017 8.17303 15.002 7.9956C15.0023 7.81817 14.9554 7.64384 14.8661 7.49052C14.7768 7.3372 14.6483 7.21039 14.4939 7.12312L14.492 7.12562ZM3.50011 14.0006C3.50037 13.9981 3.50037 13.9956 3.50011 13.9931L5.35886 8.50062H9.00011C9.13271 8.50062 9.25989 8.44794 9.35366 8.35418C9.44743 8.26041 9.50011 8.13323 9.50011 8.00062C9.50011 7.86801 9.44743 7.74084 9.35366 7.64707C9.25989 7.5533 9.13271 7.50062 9.00011 7.50062H5.35886L3.50386 2.01062C3.50324 2.00708 3.50197 2.00369 3.50011 2.00062L14.0001 7.99L3.50011 14.0006Z" fill="#41474D"/>
</svg>
