<svg width="24" height="24" viewBox="0 0 24 24" fill="none" xmlns="http://www.w3.org/2000/svg">
<g id="Iconly/Light/Edit Square">
<g id="Edit Square">
<path id="Stroke 1" d="M11.0056 3.03516H7.58156C4.76559 3.03516 3 5.02877 3 7.85115V15.4648C3 18.2872 4.75735 20.2808 7.58156 20.2808H15.6623C18.4874 20.2808 20.2447 18.2872 20.2447 15.4648V11.7761" stroke="#141514" stroke-width="1.09892" stroke-linecap="round" stroke-linejoin="round"/>
<path id="Stroke 3" fill-rule="evenodd" clip-rule="evenodd" d="M8.56566 10.4822L15.4092 3.63874C16.2617 2.78709 17.6436 2.78709 18.4962 3.63874L19.6107 4.75323C20.4633 5.6058 20.4633 6.98861 19.6107 7.84027L12.7342 14.7167C12.3615 15.0894 11.856 15.2992 11.3285 15.2992H7.89807L7.98415 11.8376C7.99697 11.3284 8.20485 10.8431 8.56566 10.4822Z" stroke="#141514" stroke-width="1.09892" stroke-linecap="round" stroke-linejoin="round"/>
<path id="Stroke 5" d="M14.3693 4.69531L18.5506 8.87669" stroke="#141514" stroke-width="1.09892" stroke-linecap="round" stroke-linejoin="round"/>
</g>
</g>
</svg>
