<svg width="4" height="20" viewBox="0 0 4 20" fill="none" xmlns="http://www.w3.org/2000/svg">
<path fill-rule="evenodd" clip-rule="evenodd" d="M2 0C2.53043 0 3.03914 0.210714 3.41421 0.585786C3.78929 0.960859 4 1.46957 4 2C4 2.53043 3.78929 3.03914 3.41421 3.41421C3.03914 3.78929 2.53043 4 2 4C1.46957 4 0.96086 3.78929 0.585787 3.41421C0.210714 3.03914 0 2.53043 0 2C0 1.46957 0.210714 0.960859 0.585787 0.585786C0.96086 0.210714 1.46957 0 2 0ZM2 8C2.53043 8 3.03914 8.21071 3.41421 8.58579C3.78929 8.96086 4 9.46957 4 10C4 10.5304 3.78929 11.0391 3.41421 11.4142C3.03914 11.7893 2.53043 12 2 12C1.46957 12 0.96086 11.7893 0.585787 11.4142C0.210714 11.0391 0 10.5304 0 10C0 9.46957 0.210714 8.96086 0.585787 8.58579C0.96086 8.21071 1.46957 8 2 8V8ZM2 16C2.53043 16 3.03914 16.2107 3.41421 16.5858C3.78929 16.9609 4 17.4696 4 18C4 18.5304 3.78929 19.0391 3.41421 19.4142C3.03914 19.7893 2.53043 20 2 20C1.46957 20 0.96086 19.7893 0.585787 19.4142C0.210714 19.0391 0 18.5304 0 18C0 17.4696 0.210714 16.9609 0.585787 16.5858C0.96086 16.2107 1.46957 16 2 16Z" fill="white"/>
</svg>
