<svg width="48" height="48" viewBox="0 0 48 48" fill="none" xmlns="http://www.w3.org/2000/svg">
<path d="M23.0112 6.07031H16.1631C10.5312 6.07031 7 10.0575 7 15.7023V30.9296C7 36.5744 10.5147 40.5616 16.1631 40.5616H32.3246C37.9748 40.5616 41.4894 36.5744 41.4894 30.9296V23.5522" stroke="#141514" stroke-width="3" stroke-linecap="round" stroke-linejoin="round"/>
<path fill-rule="evenodd" clip-rule="evenodd" d="M18.1321 20.9644L31.8191 7.27747C33.5241 5.57418 36.2879 5.57418 37.9931 7.27747L40.2221 9.50645C41.9273 11.2116 41.9273 13.9772 40.2221 15.6805L26.4691 29.4334C25.7237 30.1788 24.7127 30.5984 23.6577 30.5984H16.7969L16.969 23.6752C16.9947 22.6568 17.4104 21.6862 18.1321 20.9644Z" stroke="#141514" stroke-width="3" stroke-linecap="round" stroke-linejoin="round"/>
<path d="M29.7383 9.39062L38.1009 17.7534" stroke="#141514" stroke-width="3" stroke-linecap="round" stroke-linejoin="round"/>
</svg>
